<svg xmlns="http://www.w3.org/2000/svg" viewBox="0 0 143.77 143.78"><defs><style>.cls-1{fill:#fff;}</style></defs><title>arrowAsset 7</title><g id="Layer_2" data-name="Layer 2"><g id="Layer_1-2" data-name="Layer 1"><path class="cls-1" d="M93.65,7.18a5.09,5.09,0,0,1-1,2.08,3.8,3.8,0,0,1-2,1.2,6.54,6.54,0,0,1-3.19-.14l-1.92-.48-2.79,5.72-1.28-.32L87.88,2l2.45.61a5.45,5.45,0,0,1,2.18,1,3.18,3.18,0,0,1,1.12,1.6A3.63,3.63,0,0,1,93.65,7.18ZM86,8.79l1.75.43a4.22,4.22,0,0,0,3.05-.14A3.12,3.12,0,0,0,92.31,7,2.49,2.49,0,0,0,92,4.9a3.36,3.36,0,0,0-2.09-1.23l-1.3-.33Z"/><path class="cls-1" d="M96.42,20.12l4.21-5.82-4.86-2.15L91.56,18l-1.21-.53L99,5.47l1.21.53-3.74,5.18,4.86,2.15,3.74-5.18,1.21.53-8.65,12Z"/><path class="cls-1" d="M114.16,19a21.69,21.69,0,0,1-3,3.44,10.07,10.07,0,0,1-4,2.42,4.36,4.36,0,0,1-4-.57q-3.06-2.07-.41-6a19.43,19.43,0,0,1,2.92-3.3,10.39,10.39,0,0,1,3.94-2.34,4.25,4.25,0,0,1,3.84.49,3.59,3.59,0,0,1,1.76,2.51A5.06,5.06,0,0,1,114.16,19Zm-10.3.13a5,5,0,0,0-1,2.5,2,2,0,0,0,1,1.76,3.2,3.2,0,0,0,3.24.17,11.08,11.08,0,0,0,3.42-2.35A19.75,19.75,0,0,0,113,18.32a4.47,4.47,0,0,0,1-2.53,2.22,2.22,0,0,0-1.09-1.73,3.1,3.1,0,0,0-3.06-.18,10.22,10.22,0,0,0-3.36,2.22A19,19,0,0,0,103.86,19.13Z"/><path class="cls-1" d="M121.31,21.56l-11,7.85-1-.9,11-7.85-2.54-2.33,1-.71,6.07,5.57-1,.71Z"/><path class="cls-1" d="M127.71,33.57A21.13,21.13,0,0,1,123.87,36a10.11,10.11,0,0,1-4.49,1.17,4.38,4.38,0,0,1-3.66-1.7q-2.34-2.88,1.34-5.86a19.81,19.81,0,0,1,3.75-2.31,10.46,10.46,0,0,1,4.45-1.1,4.25,4.25,0,0,1,3.53,1.58,3.59,3.59,0,0,1,1,2.92A5.15,5.15,0,0,1,127.71,33.57Zm-9.9-2.85a4.93,4.93,0,0,0-1.69,2.1,2,2,0,0,0,.47,2,3.2,3.2,0,0,0,3.06,1.1,11,11,0,0,0,3.95-1.26,19.27,19.27,0,0,0,3.21-2.05,4.42,4.42,0,0,0,1.67-2.14,2.21,2.21,0,0,0-.54-2,3.13,3.13,0,0,0-2.89-1.07,10.77,10.77,0,0,0-3.86,1.16A19.49,19.49,0,0,0,117.81,30.72Z"/><path class="cls-1" d="M136.33,47.49a4.12,4.12,0,0,1-2.51.33,4.23,4.23,0,0,1-2.36-1.36,3.43,3.43,0,0,1-.44,2,3.22,3.22,0,0,1-1.45,1.26,5.2,5.2,0,0,1-2,.46,3.86,3.86,0,0,1-2.18-.71A5.78,5.78,0,0,1,123.48,47l-1.43-3.12,14.41-3.25,1,2.16a4.87,4.87,0,0,1,.51,2.09,3,3,0,0,1-.45,1.61A2.81,2.81,0,0,1,136.33,47.49Zm-12.6-2.66.77,1.67a3.06,3.06,0,0,0,4.44,1.93,2.36,2.36,0,0,0,1.4-1.51,3.15,3.15,0,0,0-.27-2.19l-.56-1.21Zm6.91-1.57.57,1.25a3.8,3.8,0,0,0,1.24,1.59,2.84,2.84,0,0,0,1.56.55,3.6,3.6,0,0,0,1.6-.34,1.82,1.82,0,0,0,1.08-1.18,2.87,2.87,0,0,0-.32-2l-.5-1.08Z"/><path class="cls-1" d="M134.2,54.16l2.21.76L142.26,57l.42,1.46-9.61-3.56-6.33.47-.37-1.27,6.33-.46L140,49.06l.38,1.32-4.39,2.71Z"/><path class="cls-1" d="M129.18,71.25l12.42-2.91h0L129,66.23l0-1.32,14.55,2.6.05,1.52-12.63,3h0l12.8,2.14,0,1.31-14.54-2.6Z"/><path class="cls-1" d="M137.93,87a21.8,21.8,0,0,1-4.39-1.17,10.3,10.3,0,0,1-3.91-2.51,4.42,4.42,0,0,1-1.23-3.84c.36-2.45,2.1-3.44,5.22-3a19.75,19.75,0,0,1,4.24,1.19,10.66,10.66,0,0,1,3.83,2.52,4.29,4.29,0,0,1,1.23,3.67,3.6,3.6,0,0,1-1.49,2.68A5.11,5.11,0,0,1,137.93,87Zm-4.61-9.21a5.1,5.1,0,0,0-2.69.18,2,2,0,0,0-1.14,1.69,3.23,3.23,0,0,0,1.27,3,11,11,0,0,0,3.6,2,19.93,19.93,0,0,0,3.69,1,4.36,4.36,0,0,0,2.7-.23,2.17,2.17,0,0,0,1.08-1.73,3.14,3.14,0,0,0-1.17-2.84,10.63,10.63,0,0,0-3.47-2.05A20,20,0,0,0,133.32,77.79Z"/><path class="cls-1" d="M135.22,98.35a4.14,4.14,0,0,1-1.61-1,4,4,0,0,1-1-1.69,5,5,0,0,1-.11-2.3,1.78,1.78,0,0,1-.88.64,3.31,3.31,0,0,1-1.17.13c-.43,0-1-.09-1.82-.2l-3.51-.5.44-1.34,3.07.51a13.35,13.35,0,0,0,2.08.23,2.27,2.27,0,0,0,1.33-.43A2.83,2.83,0,0,0,133,91l.27-.79-5.9-3.44.42-1.26,12.76,7.45-1,2.88a4.57,4.57,0,0,1-1,1.72,3.07,3.07,0,0,1-1.5.94A3.18,3.18,0,0,1,135.22,98.35Zm.23-1.41a2.17,2.17,0,0,0,2-.14,3.14,3.14,0,0,0,1.15-1.69l.51-1.54-4.84-2.82L133.82,92a6,6,0,0,0-.35,2.35,3,3,0,0,0,.62,1.65A3,3,0,0,0,135.45,96.94Z"/><path class="cls-1" d="M120.06,103.11l9.84,9-8-12.19.65-1.13,11.8,5.55-10-8.71.65-1.13,11,9.83-.93,1.64-11.42-5.35,7.73,11.8-1,1.68-11-9.83Z"/><path class="cls-1" d="M120.11,110.5l-1.9-4.52.92-1.06,6.09,15-.9,1-11.83-8.41.91-1.05,3.55,2.64Zm3.65,8.68-3.18-7.57-2.75,3.16Z"/><path class="cls-1" d="M107.08,117.17l9.84,8.12h0L111,114l1-.84,6.74,13.14-1.18,1-10-8.26h0l6,11.48-1,.83-6.75-13.14Z"/><path class="cls-1" d="M92.61,125.39l4.88,11.82.07-13.9,1.25-.52,5.6,13.32-1.22.51-4.6-11.55v13.48l-1.48.62-4.71-11.49,0,13.46-1.2.51.16-15.74Z"/><path class="cls-1" d="M79.26,139.29a21.48,21.48,0,0,1-.33-4.54,10.18,10.18,0,0,1,1.11-4.5,4.39,4.39,0,0,1,3.23-2.42q3.63-.69,4.52,4a19,19,0,0,1,.25,4.4,10.48,10.48,0,0,1-1.13,4.44A4.28,4.28,0,0,1,83.84,143a3.61,3.61,0,0,1-3-.54A5,5,0,0,1,79.26,139.29Zm7.2-7.36a5,5,0,0,0-1-2.49,2,2,0,0,0-2-.52A3.2,3.2,0,0,0,81,131.09a10.82,10.82,0,0,0-.77,4.08,19.88,19.88,0,0,0,.28,3.79,4.42,4.42,0,0,0,1.1,2.49,2.15,2.15,0,0,0,2,.45,3.13,3.13,0,0,0,2.31-2,10.41,10.41,0,0,0,.8-4A19.12,19.12,0,0,0,86.46,131.93Z"/><path class="cls-1" d="M71.12,129.26l2.69,12.47h0l2.31-12.55,1.32,0-2.84,14.49-1.52,0L70.35,131h0L68,143.76l-1.31,0,2.84-14.49Z"/><path class="cls-1" d="M55,137.9l1.4-.15a4.58,4.58,0,0,0,.27,2.56,2.14,2.14,0,0,0,1.7,1.26,2.84,2.84,0,0,0,2.14-.41,5.23,5.23,0,0,0,1.59-1.8,22.91,22.91,0,0,0,1.4-3.06,14.94,14.94,0,0,0,.89-3,4.75,4.75,0,0,0-.2-2.75,2.38,2.38,0,0,0-1.93-1.31,3.92,3.92,0,0,0-2.86.53l-1.58,4,2.77.47-.42,1.07-4.06-.7,2.18-5.48a6.84,6.84,0,0,1,2.06-.9,5.36,5.36,0,0,1,2.12,0A3.73,3.73,0,0,1,65.32,130a5.46,5.46,0,0,1,.41,3.69,15.23,15.23,0,0,1-.92,3.08,22,22,0,0,1-1.6,3.32,6.12,6.12,0,0,1-2.08,2.09,4.17,4.17,0,0,1-3,.48,4.13,4.13,0,0,1-1.86-.79,3.28,3.28,0,0,1-1.11-1.6A5.44,5.44,0,0,1,55,137.9Z"/><path class="cls-1" d="M38.34,131.13l1.34.28a4.29,4.29,0,0,0-.45,2.62,2.24,2.24,0,0,0,1.35,1.57,3.48,3.48,0,0,0,2.15.29,4.79,4.79,0,0,0,2.21-1.19,16.59,16.59,0,0,0,2.52-2.87,13.88,13.88,0,0,0,1.46-2.42,4.43,4.43,0,0,0,.51-2.77A2.37,2.37,0,0,0,48,125a3.07,3.07,0,0,0-2.4-.1A7.83,7.83,0,0,0,42.8,127l-1-.73a8.55,8.55,0,0,1,3.36-2.46,4.21,4.21,0,0,1,3.29.21,3.64,3.64,0,0,1,2.23,2.39,5.45,5.45,0,0,1-.55,3.62,15.49,15.49,0,0,1-1.44,2.4A19.39,19.39,0,0,1,46,135.53,6.11,6.11,0,0,1,43.16,137a4.89,4.89,0,0,1-3.13-.44,3.53,3.53,0,0,1-2-2.12A4.71,4.71,0,0,1,38.34,131.13Z"/><path class="cls-1" d="M28.81,124.26a21.46,21.46,0,0,1,3-3.4,10.26,10.26,0,0,1,4-2.36,4.37,4.37,0,0,1,4,.62q3,2.13.33,6a19.37,19.37,0,0,1-3,3.26,10.56,10.56,0,0,1-4,2.29,4.26,4.26,0,0,1-3.83-.55,3.61,3.61,0,0,1-1.73-2.54A5.08,5.08,0,0,1,28.81,124.26Zm10.3,0a5,5,0,0,0,1-2.48,2,2,0,0,0-1-1.77,3.24,3.24,0,0,0-3.25-.22,11.14,11.14,0,0,0-3.45,2.3A19.61,19.61,0,0,0,30,125a4.5,4.5,0,0,0-1,2.52A2.17,2.17,0,0,0,30,129.21a3.1,3.1,0,0,0,3.06.23,10.23,10.23,0,0,0,3.39-2.18A18.76,18.76,0,0,0,39.11,124.27Z"/><path class="cls-1" d="M31.82,112.6a3.59,3.59,0,0,1,1.25,2.53,3.46,3.46,0,0,1-1.18,2.43,8.12,8.12,0,0,1-1.34,1l-8.22,5.28L21.4,123l8.39-5.41a6.67,6.67,0,0,0,1.16-.9A2.46,2.46,0,0,0,31.8,115a2.23,2.23,0,0,0-.78-1.64,2.71,2.71,0,0,0-1.41-.81,2.88,2.88,0,0,0-1.49.17,9.66,9.66,0,0,0-1.71.91l-8.71,5.61-.93-.94,8.63-5.55a10.48,10.48,0,0,1,2.46-1.24,3.61,3.61,0,0,1,2.05-.09A4.13,4.13,0,0,1,31.82,112.6Z"/><path class="cls-1" d="M12.72,106.78a4.22,4.22,0,0,1,1.75-.7,3.88,3.88,0,0,1,2,.21,5.05,5.05,0,0,1,1.91,1.29,1.73,1.73,0,0,1,0-1.08,3,3,0,0,1,.59-1c.28-.34.7-.78,1.25-1.34l2.51-2.51.8,1.16-2.25,2.15a11.85,11.85,0,0,0-1.42,1.53,2.23,2.23,0,0,0-.46,1.32,2.83,2.83,0,0,0,.63,1.63l.48.69,6.28-2.66.76,1.09-13.61,5.75-1.74-2.49a4.68,4.68,0,0,1-.79-1.82,3.1,3.1,0,0,1,.15-1.76A3.3,3.3,0,0,1,12.72,106.78Zm1,1a2.15,2.15,0,0,0-1.07,1.66,3.21,3.21,0,0,0,.66,1.93l.93,1.33,5.16-2.18-.77-1.11A5.91,5.91,0,0,0,17,107.77a3,3,0,0,0-1.69-.5A2.92,2.92,0,0,0,13.72,107.82Z"/><path class="cls-1" d="M7.54,101,20.66,97.7l.58,1.19L8.12,102.23l1.53,3.09-1.19.3L4.81,98.24,6,97.93Z"/><path class="cls-1" d="M4.64,93.6,10.05,93,8.73,89l1.16-.13,1.32,4.07,5.79-.6L15.42,87.4l1.16-.11,2,6.16L3.88,95,2,89l1.16-.12Z"/><path class="cls-1" d="M3.45,79.25a2.18,2.18,0,0,0-1.53.84,2.31,2.31,0,0,0-.28,1.73,2.61,2.61,0,0,0,.57,1.34,2.14,2.14,0,0,0,1.07.71,2.84,2.84,0,0,0,1.3.08,2.25,2.25,0,0,0,1.11-.49,3.5,3.5,0,0,0,.78-.89c.21-.35.45-.8.72-1.37a17.08,17.08,0,0,1,.87-1.59,4.14,4.14,0,0,1,1-1.09,3.31,3.31,0,0,1,1.53-.63,4.92,4.92,0,0,1,2.27.13,3.65,3.65,0,0,1,1.79,1.22,4.9,4.9,0,0,1,.95,2.33,4.69,4.69,0,0,1-.11,2.21,3.07,3.07,0,0,1-1,1.49,3.53,3.53,0,0,1-1.65.71,7.58,7.58,0,0,1-1.15.08l-.31-1.23a7.93,7.93,0,0,0,.9-.08,2.38,2.38,0,0,0,2.23-3.09,3.06,3.06,0,0,0-.66-1.54,2.73,2.73,0,0,0-1.25-.84,3.52,3.52,0,0,0-1.59-.1,2.4,2.4,0,0,0-1.15.5,3.47,3.47,0,0,0-.8.91c-.21.34-.45.8-.73,1.38s-.61,1.16-.87,1.57a4.11,4.11,0,0,1-1,1.08,3.4,3.4,0,0,1-1.53.63,3.94,3.94,0,0,1-1.86-.15A3.57,3.57,0,0,1,1.43,84a4,4,0,0,1-.89-2.07A3.87,3.87,0,0,1,.9,79.32,2.81,2.81,0,0,1,3.07,78a7.79,7.79,0,0,1,1-.09l.32,1.27A6.56,6.56,0,0,0,3.45,79.25Z"/><path class="cls-1" d="M7.05,72.19,5.12,70.87,0,67.32,0,65.8l8.34,6L14.57,73l0,1.32L8.36,73.08.16,75.59l0-1.38,5-1.46Z"/><path class="cls-1" d="M7.53,50.61a21.63,21.63,0,0,1,4.26,1.59,10.22,10.22,0,0,1,3.65,2.87A4.43,4.43,0,0,1,16.3,59c-.59,2.4-2.42,3.23-5.48,2.47a19.14,19.14,0,0,1-4.11-1.59A10.55,10.55,0,0,1,3.14,57a4.28,4.28,0,0,1-.87-3.78A3.57,3.57,0,0,1,4,50.72,5.06,5.06,0,0,1,7.53,50.61Zm3.71,9.61a5,5,0,0,0,2.7.08,2,2,0,0,0,1.29-1.57,3.21,3.21,0,0,0-1-3.1,10.72,10.72,0,0,0-3.39-2.39,20.58,20.58,0,0,0-3.57-1.32,4.42,4.42,0,0,0-2.71,0,2.19,2.19,0,0,0-1.24,1.62,3.14,3.14,0,0,0,.89,2.94,10.56,10.56,0,0,0,3.26,2.37A19.64,19.64,0,0,0,11.24,60.22Z"/><path class="cls-1" d="M7,44.1l4.42,3.11,1.69-4,1,.69L12.36,47.9l5.72,4-.52,1.21L5.48,44.63l2.6-6.07,1,.69Z"/><path class="cls-1" d="M27,36.25l-4.71-5.43-3.2,4.24,4.71,5.43-.8,1L13.32,30.39l.79-1.05,4.19,4.82,3.2-4.24-4.19-4.83L18.1,24l9.69,11.15Z"/><path class="cls-1" d="M35.38,27.58l-1,.93-5.54-3.1a3.79,3.79,0,0,1-.46-.29c0,.08.05.29.09.62l.82,7.56-1.12,1.05-.92-9.68L21,21.25l1-.9,4.47,2.46c.32.19.52.31.61.38,0-.21-.07-.48-.1-.82l-.64-6.11,1.12-1.05.75,8.46Z"/><path class="cls-1" d="M38.36,13a21.08,21.08,0,0,1,2.1,4,10.11,10.11,0,0,1,.78,4.58,4.37,4.37,0,0,1-2,3.5q-3.06,2.09-5.72-1.83a19.54,19.54,0,0,1-2-3.94,10.55,10.55,0,0,1-.73-4.52,4.27,4.27,0,0,1,1.88-3.39,3.61,3.61,0,0,1,3-.71A5.11,5.11,0,0,1,38.36,13Zm-3.68,9.62a4.91,4.91,0,0,0,2,1.86,2,2,0,0,0,2-.29,3.2,3.2,0,0,0,1.35-3,11.13,11.13,0,0,0-.91-4.05,19.6,19.6,0,0,0-1.78-3.37,4.43,4.43,0,0,0-2-1.84,2.18,2.18,0,0,0-2,.38A3.12,3.12,0,0,0,32,15.16a10.56,10.56,0,0,0,.83,3.94A19.26,19.26,0,0,0,34.68,22.65Z"/><path class="cls-1" d="M48.22,20a3.63,3.63,0,0,1-2.82.25,3.45,3.45,0,0,1-1.84-2,7.75,7.75,0,0,1-.5-1.62l-2-9.57,1.21-.53,2,9.76a7.39,7.39,0,0,0,.42,1.41A2.5,2.5,0,0,0,46,19.11,2.29,2.29,0,0,0,47.8,19a2.74,2.74,0,0,0,1.26-1,2.79,2.79,0,0,0,.37-1.45,9.12,9.12,0,0,0-.24-1.92L47.07,4.43l1.21-.54,2.1,10a10.73,10.73,0,0,1,.28,2.75A3.72,3.72,0,0,1,50,18.63,4.23,4.23,0,0,1,48.22,20Z"/><path class="cls-1" d="M58.76,4.39a2.12,2.12,0,0,0-1-1.46,2.32,2.32,0,0,0-1.75-.13,2.59,2.59,0,0,0-1.29.69,2.18,2.18,0,0,0-.61,1.12,2.91,2.91,0,0,0,0,1.31A2.25,2.25,0,0,0,54.76,7a3.48,3.48,0,0,0,1,.7,14.86,14.86,0,0,0,1.42.6A17.22,17.22,0,0,1,58.8,9,4,4,0,0,1,60,9.92a3.33,3.33,0,0,1,.76,1.47,4.9,4.9,0,0,1,.06,2.28,3.58,3.58,0,0,1-1,1.88,5,5,0,0,1-2.25,1.15,4.66,4.66,0,0,1-2.21.08,3.06,3.06,0,0,1-1.57-.89,3.41,3.41,0,0,1-.84-1.58,7.43,7.43,0,0,1-.19-1.15l1.2-.41a7.27,7.27,0,0,0,.16.9,2.39,2.39,0,0,0,3.27,2,3.19,3.19,0,0,0,1.48-.79,2.68,2.68,0,0,0,.72-1.33,3.26,3.26,0,0,0,0-1.58,2.4,2.4,0,0,0-.6-1.11,3.4,3.4,0,0,0-1-.72c-.36-.18-.84-.38-1.44-.61a17.11,17.11,0,0,1-1.63-.73,4.07,4.07,0,0,1-1.17-.92,3.17,3.17,0,0,1-.75-1.47,3.9,3.9,0,0,1,0-1.86,3.61,3.61,0,0,1,1-1.71,4.12,4.12,0,0,1,2-1.07,4,4,0,0,1,2.65.14A2.83,2.83,0,0,1,60,3.9a6.1,6.1,0,0,1,.17.95l-1.24.42A4.26,4.26,0,0,0,58.76,4.39Z"/><path class="cls-1" d="M65.55,1.6,64.9,7l4.26-.39L69,7.78l-4.26.39L64.07,14l5.14-.47-.15,1.17-6.44.58L64.38.56,70.6,0l-.14,1.16Z"/></g></g></svg>